<svg width="75px" height="50px" viewBox="0 0 103 76" version="1.1" xmlns="http://www.w3.org/2000/svg" xmlns:xlink="http://www.w3.org/1999/xlink">
    <g id="Page-1" stroke="none" stroke-width="1" fill="none" fill-rule="evenodd">
        <g id="Asset-1" fill="#28a745">
            <path d="M98.03,68.84 C86.74,66 71.94,66.46 55.93,75 C72.47,69 91.16,71.17 102.77,74.62 C102.883333,31.66 102.936667,10.18 102.93,10.18 C101.8799,8.98851708 100.395745,8.26805369 98.81,8.18 C98.29,48.62 98.03,68.84 98.03,68.84 Z M29.56,39.23 C28.9,26.9 27.91,19.63 26.56,16.98 C25.95,19.9 26.95,27.16 29.56,39.23 Z M46.21,18.43 L46.21,31.86 C46.21,32.257645 45.887645,32.5799999 45.49,32.5799999 C45.092355,32.5799999 44.77,32.257645 44.77,31.86 L44.77,18.43 C44.77,18.032355 45.092355,17.7100001 45.49,17.7100001 C45.887645,17.7100001 46.21,18.032355 46.21,18.43 L46.21,18.43 Z M50.21,18.43 L50.21,31.86 C50.21,32.257645 49.887645,32.58 49.49,32.58 C49.092355,32.58 48.77,32.257645 48.77,31.86 L48.77,18.43 C48.77,18.032355 49.092355,17.71 49.49,17.71 C49.887645,17.71 50.21,18.032355 50.21,18.43 L50.21,18.43 Z M54.15,31.86 C54.15,32.257645 53.827645,32.58 53.43,32.58 C53.032355,32.58 52.71,32.257645 52.71,31.86 L52.71,18.43 C52.71,18.032355 53.032355,17.71 53.43,17.71 C53.827645,17.71 54.15,18.032355 54.15,18.43 L54.15,31.86 L54.15,31.86 Z M56.65,31.86 L56.65,18.43 C56.65,18.032355 56.972355,17.71 57.37,17.71 C57.767645,17.71 58.09,18.032355 58.09,18.43 L58.09,31.86 C58.09,32.257645 57.767645,32.58 57.37,32.58 C56.972355,32.58 56.65,32.257645 56.65,31.86 L56.65,31.86 Z M48.66,69.74 C44.8100998,65.9803892 40.2611512,63.0111726 35.27,61 C35.1157085,60.4068323 34.7627619,59.8844714 34.27,59.52 L32.34,45.55 C31.8626981,43.6375831 31.942505,41.6285303 32.57,39.76 C33.71,34.05 34.7,26.43 32.98,20.68 C32.26,18.28 30.98,16.68 28.98,15.97 C27.1615873,15.252937 25.0952233,15.6076114 23.62,16.89 C22.0734818,18.2332966 21.232353,20.2143763 21.34,22.26 C21.21,28.26 24.19,35.33 26.8,40.54 C27.9017371,42.1748175 28.5156332,44.0893409 28.57,46.06 L30.35,59.3 C25.007249,57.8332956 19.4292231,57.4256445 13.93,58.1 C14.13,20.63 14.03,0.9 14.03,0.9 C27.2260625,-1.74130461 40.916177,1.54958829 51.47,9.9 C62.0213862,1.54457867 75.7138312,-1.74687446 88.91,0.9 C88.91,0.9 88.82,20.63 89.03,58.1 C84.0779853,57.495437 79.0582406,57.7662257 74.2,58.9 L80.6,16.41 C74.54,18.7 70.64,31 69.65,48.32 C74.65,50.54 72.2,56.03 70.14,60.05 C64.1616666,62.0472588 58.7194999,65.3857596 54.23,69.81 L54.23,61.81 C54.2343561,60.8949363 53.7848901,60.0372054 53.03,59.52 L53.03,37.05 L54.26,37.05 C57.3703302,37.0390287 59.8890287,34.5203302 59.9,31.41 L59.9,17.23 C59.9003531,16.1888365 59.0708104,15.3371136 58.03,15.31 L44.8,15.31 C43.7418866,15.3154684 42.8854684,16.1718866 42.88,17.23 L42.88,31.41 C42.8909996,34.5242201 45.4157653,37.0445172 48.53,37.05 L49.83,37.05 L49.83,59.52 C49.0981216,60.0358172 48.6619454,60.8746176 48.66,61.77 L48.66,69.77 L48.66,69.74 Z M24.85,18.85 C24.93,23.5166667 26.0133333,29.8 28.1,37.7 C24.95,30.06 23.55,22.7 24.85,18.85 Z M23.7,18.18 C23.0333333,22.76 24.1066667,29.3333333 26.92,37.9 C22.69,29.19 21.36,22.15 23.7,18.18 Z M28.7,18.33 C31,21.75 31.58,29.16 30.57,37.33 C30.49,29.1433333 29.8666667,22.81 28.7,18.33 Z M29.63,17.38 C31.5166667,21.62 32.23,28.24 31.77,37.24 C33.53,27.72 32.94,20.58 29.63,17.38 Z M91.2,2.27 C93.3000014,2.69040736 95.2160348,3.75681281 96.68,5.32 C96.27,46.32 96.08,66.03 96.08,66.03 C80.65,63.03 66.96,65.83 51.52,75.51 L51.52,75.57 L51.52,75.57 L51.52,75.57 L51.52,75.51 C36.03,65.83 22.31,63.08 6.88,66 C6.88,66 6.68,46.32 6.28,5.29 C7.74396519,3.72681281 9.65999858,2.66040736 11.76,2.24 L11.76,60.74 C26.6574769,58.357994 41.717457,63.92776 51.48,75.43 C61.2478558,63.9371721 76.3077781,58.3788019 91.2,60.77 L91.2,2.27 Z M4.9,68.84 C16.22,66 31.03,66.46 47.03,75 C30.5,69 11.81,71.17 0.19,74.62 L0.03,10.19 C1.07632115,8.99909512 2.55721257,8.27846669 4.14,8.19 C4.65333333,48.6233333 4.90666667,68.84 4.9,68.84 Z" id="Shape"></path>
        </g>
    </g>
</svg>
